<svg width="277.602" height="75.201" viewBox="0 0 277.602 75.201" xmlns="http://www.w3.org/2000/svg"><g id="svgGroup" stroke-linecap="round" fill-rule="evenodd" font-size="9pt" stroke="#000" stroke-width="0.25mm" fill="#000" style="stroke:#000;stroke-width:0.25mm;fill:#000"><path d="M 238.301 69.8 L 242.101 62.3 Q 244.701 64.5 248.651 65.95 Q 252.601 67.4 257.101 67.4 Q 262.701 67.4 265.551 65.55 Q 268.401 63.7 268.401 60.8 Q 268.401 58.7 267.351 57.1 Q 266.301 55.5 263.501 53.95 Q 260.701 52.4 255.401 50.6 Q 248.101 48.1 244.451 44.65 Q 240.801 41.2 240.801 35.1 Q 240.801 29.1 246.051 24.95 Q 251.301 20.8 260.601 20.8 Q 265.601 20.8 269.501 21.85 Q 273.401 22.9 276.501 24.5 L 274.001 31.9 Q 271.301 30.3 267.851 29.3 Q 264.401 28.3 260.201 28.3 Q 255.001 28.3 252.301 30.4 Q 249.601 32.5 249.601 35 Q 249.601 37.4 251.701 39.1 Q 253.801 40.8 259.901 42.8 Q 269.801 46.1 273.701 50.1 Q 277.601 54.1 277.601 60.1 Q 277.601 67.1 271.951 71.15 Q 266.301 75.2 256.801 75.2 Q 250.901 75.2 246.151 73.7 Q 241.401 72.2 238.301 69.8 Z M 166.801 69.7 L 166.801 74 L 158.401 74 L 158.401 0 L 167.401 0 L 167.401 27.4 Q 169.401 25.1 173.251 22.95 Q 177.101 20.8 182.401 20.8 Q 188.401 20.8 193.651 23.95 Q 198.901 27.1 202.101 33.05 Q 205.301 39 205.301 47.5 Q 205.301 53.7 203.301 58.8 Q 201.301 63.9 197.951 67.55 Q 194.601 71.2 190.401 73.2 Q 186.201 75.2 181.801 75.2 Q 177.301 75.2 173.351 73.55 Q 169.401 71.9 166.801 69.7 Z M 39.101 26.2 L 39.101 22 L 47.301 22 L 47.301 61.4 Q 47.301 65.2 49.151 66.35 Q 51.001 67.5 53.201 67.5 L 51.301 74.5 Q 41.701 74.5 39.701 66.7 Q 37.401 69.9 33.451 72.55 Q 29.501 75.2 23.401 75.2 Q 16.901 75.2 11.601 71.9 Q 6.301 68.6 3.151 62.55 Q 0.001 56.5 0.001 48.3 Q 0.001 40.5 3.151 34.3 Q 6.301 28.1 11.851 24.45 Q 17.401 20.8 24.601 20.8 Q 29.101 20.8 32.751 22.35 Q 36.401 23.9 39.101 26.2 Z M 64.701 57.7 L 64.701 0 L 73.701 0 L 73.701 56.8 Q 73.701 62.2 75.951 64.8 Q 78.201 67.4 82.201 67.4 Q 84.101 67.4 85.951 66.95 Q 87.801 66.5 89.101 65.9 L 91.301 73.2 Q 89.501 74 86.851 74.6 Q 84.201 75.2 81.001 75.2 Q 76.401 75.2 72.701 73.45 Q 69.001 71.7 66.851 67.8 Q 64.701 63.9 64.701 57.7 Z M 98.301 57.7 L 98.301 0 L 107.301 0 L 107.301 56.8 Q 107.301 62.2 109.551 64.8 Q 111.801 67.4 115.801 67.4 Q 117.701 67.4 119.551 66.95 Q 121.401 66.5 122.701 65.9 L 124.901 73.2 Q 123.101 74 120.451 74.6 Q 117.801 75.2 114.601 75.2 Q 110.001 75.2 106.301 73.45 Q 102.601 71.7 100.451 67.8 Q 98.301 63.9 98.301 57.7 Z M 142.401 74 L 133.401 74 L 133.401 22 L 142.401 22 L 142.401 74 Z M 226.801 74 L 217.801 74 L 217.801 22 L 226.801 22 L 226.801 74 Z M 38.301 60.7 L 38.301 32.8 Q 35.601 30.9 32.351 29.75 Q 29.101 28.6 25.501 28.6 Q 20.701 28.6 17.051 31.05 Q 13.401 33.5 11.301 37.85 Q 9.201 42.2 9.201 48 Q 9.201 53.6 11.301 57.95 Q 13.401 62.3 17.101 64.75 Q 20.801 67.2 25.401 67.2 Q 29.201 67.2 32.601 65.35 Q 36.001 63.5 38.301 60.7 Z M 167.401 35.4 L 167.401 63.2 Q 169.701 65 172.801 66.1 Q 175.901 67.2 179.401 67.2 Q 184.301 67.2 188.051 64.8 Q 191.801 62.4 193.951 58 Q 196.101 53.6 196.101 47.8 Q 196.101 41.8 193.951 37.5 Q 191.801 33.2 188.251 30.9 Q 184.701 28.6 180.401 28.6 Q 176.101 28.6 172.651 30.75 Q 169.201 32.9 167.401 35.4 Z M 137.901 13.1 Q 135.301 13.1 133.451 11.2 Q 131.601 9.3 131.601 6.8 Q 131.601 3.9 133.301 2.2 Q 135.001 0.5 137.901 0.5 Q 140.501 0.5 142.351 2.35 Q 144.201 4.2 144.201 6.8 Q 144.201 9.6 142.501 11.35 Q 140.801 13.1 137.901 13.1 Z M 222.301 13.1 Q 219.701 13.1 217.851 11.2 Q 216.001 9.3 216.001 6.8 Q 216.001 3.9 217.701 2.2 Q 219.401 0.5 222.301 0.5 Q 224.901 0.5 226.751 2.35 Q 228.601 4.2 228.601 6.8 Q 228.601 9.6 226.901 11.35 Q 225.201 13.1 222.301 13.1 Z" vector-effect="non-scaling-stroke"/></g></svg>