<svg width="365" height="76.601" viewBox="0 0 365 76.601" xmlns="http://www.w3.org/2000/svg"><g id="svgGroup" stroke-linecap="round" fill-rule="evenodd" font-size="9pt" stroke="#000" stroke-width="0.25mm" fill="#000" style="stroke:#000;stroke-width:0.25mm;fill:#000"><path d="M 185.4 76.6 Q 173.9 76.6 166.9 71.25 Q 159.9 65.9 159.9 56 Q 159.9 49.3 164.5 44.1 Q 169.1 38.9 178.1 36.6 Q 171.7 35 167.8 30.95 Q 163.9 26.9 163.9 20 Q 163.9 15.5 166.65 11.4 Q 169.4 7.3 174.9 4.65 Q 180.4 2 188.6 2 Q 193.3 2 197.1 3.5 Q 200.9 5 203.15 7.7 Q 205.4 10.4 205.4 14 Q 205.4 17.8 203.1 20.25 Q 200.8 22.7 196.7 22.7 Q 194.6 22.7 194.6 21.7 Q 194.6 21.1 195.65 19.75 Q 196.7 18.4 196.7 15 Q 196.7 11.2 194.3 8.9 Q 191.9 6.6 187.5 6.6 Q 183.4 6.6 180.55 8.45 Q 177.7 10.3 176.3 13.25 Q 174.9 16.2 174.9 19.4 Q 174.9 26.4 178.55 29.9 Q 182.2 33.4 187.1 33.4 Q 187.8 33.4 188.15 34.15 Q 188.5 34.9 188.5 35.6 Q 188.5 36.2 188.2 36.9 Q 187.9 37.6 187.2 37.6 Q 178.9 39.7 175.1 44.9 Q 171.3 50.1 171.3 55.9 Q 171.3 59.7 173.05 63.25 Q 174.8 66.8 178.1 69.05 Q 181.4 71.3 186 71.3 Q 192.6 71.3 197 67.8 Q 201.4 64.3 201.4 57.6 Q 201.4 54.7 200.7 52.7 Q 200 50.7 199 49.4 Q 197.9 49.4 196.95 49.45 Q 196 49.5 195.2 49.5 Q 190.4 49.9 188.15 51.15 Q 185.9 52.4 185.05 53.55 Q 184.2 54.7 183.5 54.7 Q 182.7 54.7 182 53.65 Q 181.3 52.6 181.3 51.5 Q 181.3 48.6 183.65 47.35 Q 186 46.1 189.75 45.7 Q 193.5 45.3 197.65 45.1 Q 201.8 44.9 205.55 44.25 Q 209.3 43.6 211.65 41.85 Q 214 40.1 214 36.5 Q 214 33.3 212.7 31.5 Q 211.4 29.7 210.05 28.7 Q 208.7 27.7 208.7 27 Q 208.7 26.2 210.25 25.85 Q 211.8 25.5 213.1 25.5 Q 217.3 25.5 220.5 28.3 Q 223.7 31.1 223.7 35.8 Q 223.7 39.5 221.9 41.95 Q 220.1 44.4 217.15 45.85 Q 214.2 47.3 210.7 48 Q 207.2 48.7 203.9 49 Q 206.1 50.9 207.4 53.6 Q 208.7 56.3 208.7 59.4 Q 208.7 63.2 206.5 67.2 Q 204.3 71.2 199.2 73.9 Q 194.1 76.6 185.4 76.6 Z M 101.4 76.6 Q 94.2 76.6 88.6 74.55 Q 83 72.5 79.85 68.85 Q 76.7 65.2 76.7 60.5 Q 76.7 55.3 79.95 52.05 Q 83.2 48.8 88.1 48.8 Q 90.2 48.8 90.2 50 Q 90.2 50.4 89.4 51.5 Q 88.6 52.6 87.8 54.45 Q 87 56.3 87 59.1 Q 87 64.3 91 67.65 Q 95 71 101.4 71 Q 107 71 110.65 68.05 Q 114.3 65.1 114.3 59.7 Q 114.3 55.5 112.35 52.65 Q 110.4 49.8 107.2 47.8 Q 104 45.8 100.15 44.1 Q 96.3 42.4 92.45 40.55 Q 88.6 38.7 85.4 36.25 Q 82.2 33.8 80.25 30.2 Q 78.3 26.6 78.3 21.4 Q 78.3 16.5 80.65 12.05 Q 83 7.6 87.85 4.8 Q 92.7 2 100.1 2 Q 106.7 2 111.8 3.85 Q 116.9 5.7 119.75 9 Q 122.6 12.3 122.6 16.7 Q 122.6 21.9 119.55 25.15 Q 116.5 28.4 111.9 28.4 Q 109.8 28.4 109.8 27.2 Q 109.8 26.7 110.55 25.65 Q 111.3 24.6 112.05 22.75 Q 112.8 20.9 112.8 18.1 Q 112.8 13.4 109.3 10.5 Q 105.8 7.6 100.1 7.6 Q 93.9 7.6 90.85 11.15 Q 87.8 14.7 87.8 19.1 Q 87.8 22.8 89.8 25.4 Q 91.8 28 95.05 29.95 Q 98.3 31.9 102.2 33.6 Q 106.1 35.3 110 37.25 Q 113.9 39.2 117.15 41.8 Q 120.4 44.4 122.4 48.1 Q 124.4 51.8 124.4 57.1 Q 124.4 65.8 118.55 71.2 Q 112.7 76.6 101.4 76.6 Z M 278.9 75.2 L 257 75.2 L 255.7 73.6 L 257 71.8 Q 259.5 68.5 260.5 64.85 Q 261.5 61.2 261.5 55.1 L 261.5 23.5 Q 261.5 17.4 260.5 13.75 Q 259.5 10.1 257 6.8 L 255.7 5 L 257 3.4 L 286.6 3.4 Q 295.2 3.4 298 1.3 L 299.8 0 L 301.4 1.3 L 301.4 19.1 L 298 20.3 L 297.4 18 Q 296.5 14.4 295.3 12.5 Q 294.1 10.6 292.1 9.85 Q 290.1 9.1 286.5 9.1 L 277.8 9.1 Q 273.9 9.1 272.65 10.55 Q 271.4 12 271.4 16.7 L 271.4 36.9 L 283.1 36.9 Q 285.4 36.9 287.25 35.9 Q 289.1 34.9 291 32.3 L 291.8 31.2 L 293.8 32.3 L 293.8 49.4 L 290.4 50.6 L 289.8 48.3 Q 288.9 44.8 286.55 43.7 Q 284.2 42.6 278.9 42.6 L 271.4 42.6 L 271.4 61.9 Q 271.4 66.5 272.75 68.3 Q 274.1 70.1 277.8 71.2 L 280.1 71.8 L 278.9 75.2 Z M 341.4 76.6 Q 333.3 76.6 327.3 73.7 Q 321.3 70.8 317.3 65.7 Q 313.3 60.6 311.35 53.85 Q 309.4 47.1 309.4 39.4 Q 309.4 31.7 311.35 24.9 Q 313.3 18.1 317.3 12.95 Q 321.3 7.8 327.4 4.9 Q 333.5 2 341.7 2 Q 348.3 2 353.4 3.85 Q 358.5 5.7 361.35 9 Q 364.2 12.3 364.2 16.7 Q 364.2 21.9 361.15 25.15 Q 358.1 28.4 353.5 28.4 Q 351.4 28.4 351.4 27.2 Q 351.4 26.7 352.15 25.65 Q 352.9 24.6 353.65 22.75 Q 354.4 20.9 354.4 18.1 Q 354.4 13.4 350.9 10.5 Q 347.4 7.6 341.7 7.6 Q 335.8 7.6 331.8 10.4 Q 327.8 13.2 325.35 17.85 Q 322.9 22.5 321.8 28.15 Q 320.7 33.8 320.7 39.4 Q 320.7 47.7 323.3 54.6 Q 325.9 61.5 330.75 65.6 Q 335.6 69.7 342.3 69.7 Q 348.9 69.7 353.6 67.25 Q 358.3 64.8 361.1 60.7 Q 361.4 60.3 361.8 60.3 Q 362.7 60.3 363.85 61.2 Q 365 62.1 365 63.1 Q 365 63.4 364.7 63.9 Q 360.8 69.7 355.1 73.15 Q 349.4 76.6 341.4 76.6 Z M 19.6 75.2 L 1.2 75.2 L 0 71.8 L 2.3 71.2 Q 5 70.5 6.6 69.5 Q 8.2 68.5 9.35 66.75 Q 10.5 65 11.5 61.9 L 27.2 16.7 Q 27.7 15.1 28 13.95 Q 28.3 12.8 28.3 11.8 Q 28.3 9.9 27.2 8.95 Q 26.1 8 23.8 7.4 L 21.5 6.8 L 22.7 3.4 L 42 3.4 L 62.1 61.4 Q 63.3 64.7 64.55 66.8 Q 65.8 68.9 67.4 70.4 Q 69 71.9 71.1 73.6 L 69.8 75.2 L 47.3 75.2 L 46.1 71.8 L 48.4 71.2 Q 50.7 70.6 51.8 69.65 Q 52.9 68.7 52.9 66.8 Q 52.9 65.8 52.6 64.65 Q 52.3 63.5 51.8 61.9 L 47 47.9 L 23.9 47.9 L 21.5 55.2 Q 20.4 58.6 19.8 61.1 Q 19.2 63.6 19.2 65.7 Q 19.2 69.1 20.6 71.8 L 21.5 73.6 L 19.6 75.2 Z M 35.3 13.7 L 26 41.7 L 44.9 41.7 L 35.3 13.7 Z" vector-effect="non-scaling-stroke"/></g></svg>